<?xml version="1.0" standalone="no"?>
<!DOCTYPE svg PUBLIC "-//W3C//DTD SVG 20010904//EN"
 "http://www.w3.org/TR/2001/REC-SVG-20010904/DTD/svg10.dtd">
<svg version="1.0" xmlns="http://www.w3.org/2000/svg"
 width="1250.000000pt" height="1250.000000pt" viewBox="0 0 1250.000000 1250.000000"
 preserveAspectRatio="xMidYMid meet">

<g transform="translate(0.000000,1250.000000) scale(0.100000,-0.100000)"
fill="#000000" stroke="none">
<path d="M5955 10780 c-11 -5 -47 -9 -80 -9 -144 -2 -526 -68 -762 -132 -18
-5 -48 -13 -65 -18 -129 -34 -433 -143 -565 -202 -26 -12 -64 -28 -83 -36
-160 -70 -445 -225 -577 -315 -23 -15 -46 -28 -52 -28 -6 0 -11 -4 -11 -8 0
-5 -12 -15 -27 -23 -16 -8 -30 -17 -33 -20 -3 -3 -35 -27 -72 -52 -74 -51 -96
-67 -230 -175 -226 -182 -506 -462 -660 -662 -15 -19 -46 -57 -68 -85 -52 -65
-236 -333 -282 -410 -139 -232 -236 -429 -328 -660 -28 -71 -55 -139 -60 -150
-5 -11 -14 -38 -21 -60 -6 -22 -15 -49 -20 -60 -4 -11 -13 -38 -20 -60 -6 -22
-15 -51 -20 -65 -4 -14 -19 -70 -33 -125 -15 -55 -31 -114 -36 -131 -6 -17
-10 -42 -10 -55 0 -14 -4 -29 -9 -34 -5 -6 -12 -30 -15 -55 -3 -25 -10 -72
-15 -105 -16 -90 -29 -185 -47 -335 -19 -157 -29 -697 -14 -775 5 -27 12 -92
15 -144 3 -52 8 -97 10 -101 2 -3 9 -44 16 -91 25 -181 37 -252 59 -339 6 -25
15 -63 20 -85 11 -53 50 -195 60 -220 4 -11 18 -54 30 -95 12 -41 26 -84 30
-95 4 -11 13 -36 20 -55 7 -19 16 -44 21 -55 5 -11 18 -44 29 -74 12 -30 30
-75 42 -100 11 -25 27 -62 35 -81 147 -335 378 -711 623 -1011 250 -308 618
-647 920 -849 36 -24 67 -46 70 -50 6 -7 99 -70 104 -70 2 0 33 -18 67 -40 35
-21 84 -50 109 -63 25 -13 77 -41 115 -62 39 -21 95 -50 125 -65 111 -55 194
-95 199 -96 8 -1 40 -13 76 -29 46 -20 77 -32 115 -45 19 -7 45 -16 58 -21 57
-23 72 -28 142 -49 41 -12 84 -26 95 -30 115 -44 390 -107 615 -139 41 -6 81
-13 90 -16 8 -2 49 -7 90 -10 41 -3 99 -10 128 -16 29 -6 59 -8 66 -6 8 3 65
-1 127 -10 116 -15 115 -15 539 12 25 2 79 7 120 13 41 5 82 10 90 10 15 0
159 23 265 42 157 28 274 55 375 85 30 9 80 23 110 31 72 19 170 52 192 64 10
6 27 10 37 10 11 0 23 5 26 10 3 6 15 10 26 10 10 0 27 4 37 9 9 5 28 13 42
19 37 15 105 46 193 86 44 20 84 36 91 36 7 0 16 4 21 9 6 4 57 33 115 63 58
31 123 66 145 78 22 13 58 33 80 44 22 12 42 23 45 26 14 14 151 100 159 100
5 0 11 4 13 8 2 4 41 34 88 67 117 82 241 175 265 200 11 11 38 34 60 50 62
45 443 429 526 530 122 147 308 401 357 485 11 19 48 82 83 140 35 58 72 121
82 140 9 19 39 78 66 130 26 52 55 111 63 130 9 19 25 55 36 80 47 104 92 222
127 330 21 63 41 124 45 135 34 97 44 128 62 205 5 25 14 63 20 85 39 166 91
476 103 615 3 30 9 71 15 90 6 20 10 168 10 357 0 254 -3 336 -15 388 -9 36
-13 69 -11 74 3 4 1 23 -4 42 -5 19 -14 75 -21 124 -30 242 -72 436 -144 670
-14 44 -30 96 -36 115 -5 19 -14 44 -18 55 -5 11 -14 38 -20 60 -16 53 -32 92
-75 188 -14 32 -26 60 -26 62 0 15 -158 340 -206 425 -20 36 -62 105 -93 154
-31 49 -65 104 -76 121 -53 84 -182 260 -280 384 -232 287 -601 631 -900 836
-55 38 -102 72 -105 75 -3 3 -14 10 -25 17 -11 6 -63 38 -115 71 -119 74 -163
99 -325 182 -147 75 -310 150 -325 150 -6 0 -18 4 -28 9 -44 24 -328 123 -437
152 -22 6 -53 14 -70 19 -173 49 -489 107 -700 130 -55 5 -120 13 -145 16 -79
10 -614 14 -635 4z m750 -515 c223 -26 292 -39 530 -95 160 -38 513 -154 550
-180 6 -4 37 -17 70 -30 133 -52 472 -234 617 -331 455 -305 820 -665 1130
-1114 115 -167 262 -430 338 -605 22 -52 45 -104 50 -115 34 -76 113 -300 141
-400 4 -16 13 -48 19 -70 48 -169 90 -378 111 -540 17 -140 38 -427 39 -525 0
-93 -23 -422 -35 -510 -48 -342 -102 -563 -212 -875 -60 -169 -167 -406 -242
-537 -11 -21 -31 -55 -42 -75 -57 -102 -79 -137 -153 -248 -371 -559 -888
-1026 -1487 -1339 -467 -244 -932 -383 -1479 -442 -158 -16 -609 -19 -744 -4
-211 24 -268 32 -393 56 -73 13 -176 36 -230 50 -54 14 -109 28 -123 31 -14 2
-34 8 -45 12 -11 5 -51 18 -90 30 -84 27 -244 86 -302 112 -24 10 -45 19 -48
19 -13 0 -251 115 -350 170 -352 193 -619 394 -911 685 -263 262 -452 502
-626 795 -89 149 -268 513 -268 543 0 7 -4 17 -9 23 -20 21 -109 292 -157 474
-112 428 -153 852 -124 1282 11 155 31 333 49 423 5 28 15 79 22 115 6 36 23
108 36 160 14 52 29 111 33 130 25 105 67 227 141 412 316 795 902 1491 1634
1941 173 107 449 245 605 304 30 12 86 33 124 48 328 126 786 221 1151 239
140 7 563 -5 680 -19z"/>
<path d="M6057 9863 c-4 -3 -7 -114 -7 -245 l0 -238 200 0 c198 0 338 -9 478
-32 l72 -12 -2 -3085 -3 -3086 -55 -7 c-30 -4 -148 -15 -262 -25 -181 -15
-229 -16 -395 -5 -206 14 -374 37 -518 71 -22 6 -61 15 -88 20 -26 6 -56 15
-67 21 -20 11 -20 22 -20 1063 0 579 0 1058 0 1065 0 9 -56 12 -245 12 l-245
0 -2 -1232 c-2 -809 0 -1235 7 -1244 25 -32 362 -140 590 -190 121 -26 273
-48 445 -65 133 -13 667 -7 745 9 28 6 91 16 140 22 50 7 106 16 125 20 19 5
80 18 135 30 55 12 125 30 155 40 l55 17 3 3466 2 3465 -32 11 c-51 17 -216
57 -288 70 -176 32 -259 44 -428 61 -114 11 -485 14 -495 3z"/>
<path d="M8750 8747 c-36 -39 -108 -115 -160 -170 -52 -54 -97 -103 -99 -109
-2 -6 26 -40 61 -77 332 -341 611 -842 739 -1321 119 -448 138 -987 49 -1416
-6 -27 -13 -62 -16 -79 -28 -138 -112 -405 -162 -517 -16 -35 -35 -79 -42 -98
-19 -48 -119 -239 -141 -272 -11 -14 -19 -29 -19 -32 0 -20 -184 -282 -282
-403 -130 -160 -437 -453 -474 -453 -11 0 -14 255 -14 1676 0 922 -3 1680 -6
1685 -7 12 -471 12 -478 0 -11 -17 -7 -4226 4 -4229 12 -4 232 104 360 177
206 117 480 319 655 482 28 25 64 59 81 75 104 96 293 322 427 510 72 102 245
390 284 474 90 193 142 323 194 485 60 188 86 294 122 495 37 207 42 286 42
625 0 339 -4 399 -42 615 -8 47 -19 108 -23 135 -21 127 -123 457 -193 627
-120 289 -301 600 -487 840 -92 118 -275 325 -298 337 -14 7 -30 -6 -82 -62z"/>
<path d="M3520 8312 l-265 -3 -83 -134 c-88 -142 -190 -337 -259 -496 -73
-165 -175 -490 -212 -674 -7 -33 -16 -78 -21 -100 -8 -40 -20 -123 -41 -305
-26 -220 -10 -683 32 -930 6 -36 15 -87 19 -115 21 -129 57 -265 127 -475 137
-414 383 -846 674 -1185 84 -98 341 -354 429 -427 135 -113 345 -262 445 -318
33 -18 68 -40 77 -48 9 -7 22 -11 27 -7 8 4 11 239 11 761 l0 754 -250 0 -250
0 0 -250 c0 -260 -3 -276 -41 -232 -110 128 -148 174 -220 272 -47 63 -101
142 -121 175 -19 33 -53 89 -75 125 -145 237 -297 648 -352 948 -45 248 -54
345 -54 597 -1 440 66 789 233 1210 86 217 290 562 449 759 40 48 70 91 67 94
-8 7 -45 7 -346 4z"/>
</g>
</svg>
