<?xml version="1.0" standalone="no"?>
<!DOCTYPE svg PUBLIC "-//W3C//DTD SVG 20010904//EN"
 "http://www.w3.org/TR/2001/REC-SVG-20010904/DTD/svg10.dtd">
<svg version="1.0" xmlns="http://www.w3.org/2000/svg"
 width="300.000000pt" height="300.000000pt" viewBox="0 0 300.000000 300.000000"
 preserveAspectRatio="xMidYMid meet">

<g transform="translate(0.000000,300.000000) scale(0.100000,-0.100000)"
fill="#000000" stroke="none">
<path d="M1355 2579 c-359 -52 -672 -284 -826 -613 -112 -239 -130 -532 -49
-778 121 -363 400 -621 776 -719 114 -30 356 -33 472 -6 218 51 370 135 532
297 130 130 191 222 247 372 47 124 63 201 70 338 21 425 -223 828 -614 1015
-182 87 -410 122 -608 94z m395 -348 c0 -5 -7 -15 -17 -22 -29 -24 -43 -76
-43 -157 l0 -78 63 -31 c82 -40 121 -74 146 -126 53 -109 -5 -220 -152 -292
l-57 -27 0 -217 c1 -239 7 -286 44 -318 15 -12 26 -25 26 -28 0 -3 -40 -5 -90
-5 -83 0 -112 9 -75 24 37 14 45 67 45 302 l0 226 -27 -6 c-16 -4 -87 -10
-159 -13 l-131 -6 -6 -153 c-6 -164 2 -217 34 -237 35 -22 20 -27 -71 -27 -85
0 -115 11 -69 25 36 12 47 61 54 241 l7 169 -51 23 c-54 24 -91 68 -91 107 0
57 75 117 166 132 l34 6 0 -117 0 -116 103 1 c56 0 125 6 152 13 l50 11 3 202
2 202 -37 8 c-21 4 -108 8 -193 8 -176 0 -234 -13 -316 -67 -43 -29 -64 -53
-99 -113 -10 -16 -14 -16 -70 0 -33 10 -64 21 -70 26 -16 16 76 98 150 134
163 80 400 103 608 59 l27 -6 0 71 c0 74 -15 126 -43 150 -31 25 -18 31 68 31
47 0 85 -4 85 -9z"/>
<path d="M1690 1740 c0 -121 3 -180 11 -180 21 0 99 52 128 86 17 19 34 46 37
59 17 68 -33 143 -127 190 l-49 25 0 -180z"/>
<path d="M1228 1664 c-60 -32 -59 -83 2 -114 l38 -19 6 31 c3 17 6 50 6 74 0
48 -8 52 -52 28z"/>
</g>
</svg>
