<?xml version="1.0" encoding="utf-8"?>
<!-- Generator: Adobe Illustrator 27.4.0, SVG Export Plug-In . SVG Version: 6.00 Build 0)  -->
<svg version="1.1" id="Calque_1" xmlns="http://www.w3.org/2000/svg" xmlns:xlink="http://www.w3.org/1999/xlink" x="0px" y="0px"
	 viewBox="0 0 560 580" style="enable-background:new 0 0 560 580;" xml:space="preserve">
<g transform="translate(0.000000,580.000000) scale(0.100000,-0.100000)">
	<path d="M2616.6,5589.7c-148-14-245-28-350-50c-1002-203-1806-982-2043-1979c-47-195-63-319-69-536c-8-275,15-487,83-747
		c257-994,1081-1755,2094-1936c288-51,654-51,940,0c526,95,1005,344,1390,724c420,414,679,930,766,1525c28,187,25,555-5,745
		c-89,564-328,1048-715,1448c-419,433-955,704-1556,788C3049.6,5585.7,2697.6,5597.7,2616.6,5589.7z M3411.6,4700.7c0-8-13-21-29-30
		c-43-22-80-75-103-147c-17-52-22-98-26-256l-4-193l43-16c161-62,327-167,407-258c92-105,126-198,120-330c-3-78-8-102-35-156
		c-39-78-114-164-202-231c-63-47-250-148-299-160l-23-6l3-569c4-503,6-575,21-628c22-75,58-131,103-157c19-11,34-26,34-34
		c0-12-37-14-215-14c-198,0-215,1-215,18c0,9,15,24,33,33c39,19,71,65,94,133c15,45,18,115,21,615l3,564l-23-7
		c-197-54-520-80-688-56c-41,6-67,6-70,0c-4-6-12-178-19-382c-13-397-10-442,31-526c11-25,38-56,59-71c21-14,38-35,39-45
		c0-18-7-19-157-13c-87,4-184,7-215,7c-50,0-58,3-58,19c0,11,12,23,30,31c16,7,45,29,64,50c50,56,64,132,76,422c5,133,12,311,15,394
		l7,151l-62,23c-74,28-164,81-208,123c-108,103-98,259,24,366c78,68,192,113,353,137l44,6l-7-158c-3-88-9-214-12-281l-7-121l59-9
		c160-22,466-1,649,45l70,18l3,491l2,490l-39,12c-109,32-248,44-521,45c-247,1-286-1-386-21c-333-68-541-203-631-411
		c-26-60-30-63-56-58c-70,14-317,99-317,110c0,23,93,128,165,186c173,137,390,231,659,285c173,34,290,45,499,45c212,0,353-12,508-44
		c60-13,111-20,113-17s0,92-4,196c-8,203-18,249-66,312c-14,18-38,40-55,48c-16,9-29,22-29,30c0,13,32,15,215,15
		S3411.6,4713.7,3411.6,4700.7z"/>
	<path d="M3259.6,3937.7c-2-4-1-206,2-450l5-443l85,41c106,52,194,114,253,180c65,73,91,131,95,218c4,66,1,79-27,136
		c-35,72-106,148-189,205C3413.6,3871.7,3263.6,3947.7,3259.6,3937.7z"/>
	<path d="M2151.6,3324.7c-101-47-140-93-140-165c0-30,7-44,38-73c37-35,115-82,159-95c28-9,32,10,35,212
		C2247.6,3378.7,2252.6,3372.7,2151.6,3324.7z"/>
</g>
</svg>
