<?xml version="1.0" encoding="utf-8"?>
<!-- Generator: Adobe Illustrator 27.4.0, SVG Export Plug-In . SVG Version: 6.00 Build 0)  -->
<svg version="1.1" id="Calque_1" xmlns="http://www.w3.org/2000/svg" xmlns:xlink="http://www.w3.org/1999/xlink" x="0px" y="0px"
	 viewBox="0 0 707 261" style="enable-background:new 0 0 707 261;" xml:space="preserve">
<style type="text/css">
	.st0{fill:#9E0E40;}
	.st1{font-family:'CormorantGaramond-Regular';}
	.st2{font-size:125px;}
	.st3{fill:none;stroke:#9E0E40;stroke-width:2;stroke-miterlimit:10;}
	.st4{fill-rule:evenodd;clip-rule:evenodd;fill:#9E0E40;}
</style>
<text transform="matrix(1 0 0 1 77.2607 181.6299)" class="st0 st1 st2">POURPRE</text>
<line class="st3" x1="-1" y1="213.6" x2="708" y2="213.6"/>
<line class="st3" x1="421" y1="71.9" x2="711" y2="71.9"/>
<line class="st3" x1="0" y1="71.9" x2="300" y2="71.9"/>
<g>
	<path class="st4" d="M355.8,58.6c-2.5,3.6-5.2,7.1-8.1,10.5c0-0.6-0.3-0.9-0.9-1c-0.3-0.3-0.5-0.6-0.7-1c2.4-3.3,4.8-6.5,7.4-9.6
		c0.4,0.3,0.8,0.7,1.1,1.1c0.1-0.5,0.3-0.9,0.6-1.3C355.3,57.8,355.5,58.2,355.8,58.6z"/>
</g>
<g>
	<path class="st4" d="M385.5,88.3c-0.1,0-0.2,0-0.2,0c-4.5-0.1-8.2-0.3-11-0.4c-0.2-1.4,0.4-2.1,1.8-2c2.5,0,4.9,0,7.4,0
		c3.5-10.6,7-21.2,10.4-31.8c-6.1,6-12.3,12-18.4,17.9c-5-6.4-10-12.8-15-19.2c-1.6,1.9-3.1,3.9-4.7,5.8c-0.3-0.4-0.5-0.8-0.6-1.3
		c-0.2,0.4-0.4,0.9-0.6,1.3c-0.3-0.4-0.7-0.8-1.1-1.1c2.2-3.1,4.5-6,6.9-8.9c5.1,6.5,10.2,13,15.3,19.5c8-7.6,15.9-15.3,23.8-23.1
		c0.2-0.2,0.3-0.2,0.4,0C395.1,59.3,390.3,73.8,385.5,88.3z"/>
</g>
<g>
	<path class="st4" d="M346.2,67.1c0.2,0.4,0.4,0.7,0.7,1c0.6,0.1,0.9,0.4,0.9,1c-0.7,0.8-1.3,1.7-1.9,2.7c-0.2,0.2-0.4,0.2-0.6,0.1
		c-6.1-5.9-12.1-11.9-18.2-17.8c3.5,10.6,7,21.1,10.4,31.8c11.8,0.2,23.7,0.3,35.6,0.3c-0.2,0.6-0.4,1.3-0.4,1.9
		c-12.3,0-24.6,0-36.9,0.1c16.5,0.1,33.1,0.2,49.6,0.1c0.1,0,0.2,0,0.2,0c-16.7,0.2-33.4,0.3-50.1,0.2c-4.7-14.6-9.6-29.3-14.5-43.8
		c0-0.1,0.1-0.2,0.1-0.2c8,7.9,16,15.7,24.2,23.5C345.5,67.7,345.8,67.3,346.2,67.1z"/>
</g>
<g>
	<path class="st4" d="M337.5,85.9c12.9,0,25.8,0,38.7,0c-1.4,0-2,0.6-1.8,2c2.8,0.2,6.4,0.3,11,0.4c-16.5,0-33.1,0-49.6-0.1
		c12.3-0.1,24.6-0.2,36.9-0.1c0.1-0.6,0.2-1.3,0.4-1.9C361.1,86.2,349.3,86.1,337.5,85.9z"/>
</g>
</svg>
