<?xml version="1.0" encoding="utf-8"?>
<!-- Generator: Adobe Illustrator 27.4.0, SVG Export Plug-In . SVG Version: 6.00 Build 0)  -->
<svg version="1.1" id="Calque_1" xmlns="http://www.w3.org/2000/svg" xmlns:xlink="http://www.w3.org/1999/xlink" x="0px" y="0px"
	 viewBox="0 0 707 261" style="enable-background:new 0 0 707 261;" xml:space="preserve">
<style type="text/css">
	.st0{fill:#FFFFFF;}
	.st1{font-family:'CormorantGaramond-Regular';}
	.st2{font-size:125px;}
	.st3{fill:none;stroke:#FFFFFF;stroke-width:2;stroke-miterlimit:10;}
	.st4{fill-rule:evenodd;clip-rule:evenodd;fill:#FFFFFF;}
</style>
<text transform="matrix(1 0 0 1 75.0552 184.0068)" class="st0 st1 st2">POURPRE</text>
<line class="st3" x1="-1" y1="213.6" x2="708" y2="213.6"/>
<line class="st3" x1="421" y1="71.9" x2="711" y2="71.9"/>
<line class="st3" x1="0" y1="71.9" x2="300" y2="71.9"/>
<g>
	<path class="st4" d="M351.3,53.1c-2.6,3.6-5.5,7-8.4,10.3c0-0.6-0.3-0.9-0.9-1c-0.3-0.3-0.5-0.6-0.7-1c2.5-3.2,5.1-6.4,7.7-9.5
		c0.4,0.3,0.8,0.7,1.2,1.1c0.1-0.5,0.4-0.9,0.6-1.3C350.7,52.2,351,52.7,351.3,53.1z"/>
</g>
<g>
	<path class="st4" d="M382.4,82.3c-0.1,0-0.2,0-0.2,0c-4.7-0.1-8.5-0.3-11.5-0.4c-0.2-1.4,0.4-2,1.9-2c2.6,0,5.1,0,7.7,0
		c3.7-10.4,7.3-20.8,10.9-31.2c-6.4,5.9-12.8,11.8-19.3,17.6c-5.2-6.3-10.5-12.6-15.7-18.9c-1.6,1.9-3.3,3.8-4.9,5.7
		c-0.3-0.4-0.5-0.8-0.6-1.3c-0.2,0.4-0.4,0.9-0.6,1.3c-0.4-0.4-0.7-0.8-1.2-1.1c2.3-3,4.7-5.9,7.3-8.8c5.3,6.4,10.7,12.8,16,19.1
		c8.4-7.5,16.7-15.1,24.9-22.8c0.2-0.2,0.3-0.2,0.5,0C392.4,53.7,387.4,68,382.4,82.3z"/>
</g>
<g>
	<path class="st4" d="M341.2,61.4c0.2,0.4,0.4,0.7,0.7,1c0.6,0.1,0.9,0.4,0.9,1c-0.7,0.8-1.4,1.7-2,2.6c-0.2,0.2-0.4,0.2-0.6,0.1
		c-6.4-5.8-12.7-11.7-19.1-17.5c3.7,10.4,7.3,20.8,10.9,31.2c12.4,0.2,24.8,0.3,37.2,0.3c-0.2,0.6-0.4,1.2-0.5,1.9
		c-12.9,0-25.7,0-38.6,0.1c17.3,0.1,34.6,0.2,51.9,0.1c0.1,0,0.2,0,0.2,0c-17.4,0.2-34.9,0.3-52.4,0.2c-4.9-14.4-10-28.8-15.2-43.1
		c0-0.1,0.1-0.2,0.1-0.2c8.4,7.8,16.8,15.5,25.3,23.1C340.5,62,340.8,61.7,341.2,61.4z"/>
</g>
<g>
	<path class="st4" d="M341.1,79.9c13.5,0,27,0,40.5,0c-1.4,0-2.1,0.6-1.9,2c2.9,0.2,6.7,0.3,11.5,0.4c-17.3,0-34.6,0-51.9-0.1
		c12.9-0.1,25.7-0.2,38.6-0.1c0.1-0.6,0.2-1.3,0.5-1.9C365.8,80.2,353.4,80.1,341.1,79.9z"/>
</g>
</svg>
